<svg width="28" height="28" viewBox="0 0 28 28" fill="none" xmlns="http://www.w3.org/2000/svg">
<g id="arrow_outward">
<mask id="mask0_264_1258" style="mask-type:alpha" maskUnits="userSpaceOnUse" x="0" y="0" width="28" height="28">
<rect id="Bounding box" width="28" height="28" fill="#4659FF"/>
</mask>
<g mask="url(#mask0_264_1258)">
<path id="arrow_outward_2" d="M18.9584 9.1044L8.09942 19.9702C7.92592 20.1437 7.71988 20.2304 7.48132 20.2304C7.24276 20.2304 7.03672 20.1437 6.86322 19.9702C6.68972 19.7967 6.60297 19.5906 6.60297 19.3521C6.60297 19.1135 6.68972 18.9075 6.86322 18.734L17.729 7.87494H8.16674C7.91882 7.87494 7.71102 7.79106 7.54333 7.62329C7.37562 7.45551 7.29177 7.24761 7.29177 6.99959C7.29177 6.75156 7.37562 6.54379 7.54333 6.37627C7.71102 6.20876 7.91882 6.125 8.16674 6.125H19.6539C19.9527 6.125 20.2031 6.22605 20.4052 6.42816C20.6073 6.63027 20.7084 6.8807 20.7084 7.17946V18.6666C20.7084 18.9146 20.6245 19.1224 20.4567 19.29C20.2889 19.4578 20.081 19.5416 19.833 19.5416C19.585 19.5416 19.3772 19.4578 19.2097 19.29C19.0422 19.1224 18.9584 18.9146 18.9584 18.6666V9.1044Z" fill="#1300FF"/>
</g>
</g>
</svg>
