<svg width="40" height="40" viewBox="0 0 40 40" fill="none" xmlns="http://www.w3.org/2000/svg">
<g id="arrow_circle_right">
<mask id="mask0_199_1219" style="mask-type:alpha" maskUnits="userSpaceOnUse" x="0" y="0" width="40" height="40">
<rect id="Bounding box" width="40" height="40" fill="#D9D9D9"/>
</mask>
<g mask="url(#mask0_199_1219)">
<path id="arrow_circle_right_2" d="M20.0028 35.8333C17.8243 35.8333 15.7734 35.4178 13.8501 34.5867C11.9267 33.7556 10.2478 32.623 8.81312 31.189C7.37848 29.755 6.24543 28.0768 5.41396 26.1543C4.58248 24.2318 4.16675 22.1813 4.16675 20.0028C4.16675 17.8129 4.5823 15.7546 5.41341 13.8277C6.24453 11.9007 7.37708 10.2246 8.81108 8.79925C10.2451 7.37386 11.9233 6.24543 13.8458 5.41396C15.7683 4.58249 17.8188 4.16675 19.9972 4.16675C22.1871 4.16675 24.2455 4.58231 26.1724 5.41342C28.0993 6.24453 29.7755 7.37244 31.2008 8.79716C32.6262 10.2219 33.7547 11.8973 34.5861 13.8234C35.4176 15.7494 35.8333 17.8074 35.8333 19.9972C35.8333 22.1757 35.4178 24.2267 34.5867 26.15C33.7556 28.0733 32.6276 29.7523 31.2029 31.187C29.7782 32.6216 28.1028 33.7547 26.1767 34.5861C24.2507 35.4176 22.1927 35.8333 20.0028 35.8333ZM21.8281 21.047L19.2629 23.6122C19.062 23.8131 18.9643 24.0535 18.9696 24.3334C18.975 24.6133 19.0781 24.8537 19.2789 25.0545C19.4797 25.2554 19.7237 25.3558 20.0107 25.3558C20.2977 25.3558 20.5399 25.2554 20.7372 25.0545L24.8782 20.9135C25.1382 20.6535 25.2682 20.349 25.2682 20C25.2682 19.651 25.1382 19.3466 24.8782 19.0866L20.7212 14.9295C20.5203 14.7287 20.28 14.6283 20 14.6283C19.7201 14.6283 19.4797 14.7287 19.2789 14.9295C19.0781 15.1304 18.9776 15.3743 18.9776 15.6614C18.9776 15.9484 19.0781 16.1906 19.2789 16.3878L21.8281 18.9531H15C14.6986 18.9531 14.4487 19.0523 14.2505 19.2506C14.0522 19.449 13.9531 19.699 13.9531 20.0006C13.9531 20.3022 14.0522 20.552 14.2505 20.75C14.4487 20.948 14.6986 21.047 15 21.047H21.8281Z" fill="white"/>
</g>
</g>
</svg>
