<svg width="28" height="28" viewBox="0 0 28 28" fill="none" xmlns="http://www.w3.org/2000/svg">
<g id="expand_more">
<mask id="mask0_199_1741" style="mask-type:alpha" maskUnits="userSpaceOnUse" x="0" y="0" width="28" height="28">
<rect id="Bounding box" width="28" height="28" fill="#D9D9D9"/>
</mask>
<g mask="url(#mask0_199_1741)">
<path id="expand_more_2" d="M14 17.1052C13.8669 17.1052 13.7379 17.0828 13.613 17.0379C13.4881 16.993 13.3711 16.916 13.2619 16.8068L8.0007 11.5456C7.83169 11.3766 7.75018 11.1747 7.75617 10.9399C7.76214 10.705 7.84964 10.5031 8.01867 10.3341C8.18768 10.1651 8.39258 10.0806 8.63338 10.0806C8.87418 10.0806 9.07909 10.1651 9.2481 10.3341L14 15.086L18.7699 10.3162C18.9389 10.1471 19.1409 10.0656 19.3757 10.0716C19.6105 10.0776 19.8124 10.1651 19.9814 10.3341C20.1505 10.5031 20.235 10.708 20.235 10.9488C20.235 11.1896 20.1505 11.3945 19.9814 11.5636L14.7382 16.8068C14.629 16.916 14.5138 16.993 14.3927 17.0379C14.2715 17.0828 14.1407 17.1052 14 17.1052Z" fill="#1C1B1F"/>
</g>
</g>
</svg>
