<svg width="40" height="28" viewBox="0 0 40 28" fill="none" xmlns="http://www.w3.org/2000/svg">
<path fill-rule="evenodd" clip-rule="evenodd" d="M8 4C5.79105 4 4 5.79105 4 8C4 10.2089 5.79105 12 8 12H14C18.4181 12 22 15.5819 22 20C22 24.4181 18.4181 28 14 28H2C0.89543 28 0 27.1046 0 26C0 24.8954 0.89543 24 2 24H14C16.2089 24 18 22.209 18 20C18 17.7911 16.209 16 14 16H8C3.58192 16 0 12.4181 0 8C0 3.58192 3.58192 0 8 0H32C36.4181 0 40 3.58192 40 8C40 11.314 37.9846 14.1575 35.1128 15.3718C38.1046 17.9394 40 21.7485 40 26C40 27.1046 39.1046 28 38 28C36.8954 28 36 27.1046 36 26C36 20.4775 31.5225 16 26 16C24.8954 16 24 15.1046 24 14C24 12.8954 24.8954 12 26 12H32C34.209 12 36 10.209 36 8C36 5.79105 34.209 4 32 4H8Z" fill="#222222"/>
</svg>
