<svg width="25" height="24" viewBox="0 0 25 24" fill="none" xmlns="http://www.w3.org/2000/svg">
<g id="mdi:twitter">
<path id="Vector" d="M23.0601 6C22.2901 6.35 21.4601 6.58 20.6001 6.69C21.4801 6.16 22.1601 5.32 22.4801 4.31C21.6501 4.81 20.7301 5.16 19.7601 5.36C18.9701 4.5 17.8601 4 16.6001 4C14.2501 4 12.3301 5.92 12.3301 8.29C12.3301 8.63 12.3701 8.96 12.4401 9.27C8.88014 9.09 5.71014 7.38 3.60014 4.79C3.23014 5.42 3.02014 6.16 3.02014 6.94C3.02014 8.43 3.77014 9.75 4.93014 10.5C4.22014 10.5 3.56014 10.3 2.98014 10V10.03C2.98014 12.11 4.46014 13.85 6.42014 14.24C5.79086 14.4122 5.13023 14.4362 4.49014 14.31C4.76174 15.1625 5.29367 15.9084 6.01115 16.4429C6.72863 16.9775 7.59558 17.2737 8.49014 17.29C6.97377 18.4904 5.09413 19.1393 3.16014 19.13C2.82014 19.13 2.48014 19.11 2.14014 19.07C4.04014 20.29 6.30014 21 8.72014 21C16.6001 21 20.9301 14.46 20.9301 8.79C20.9301 8.6 20.9301 8.42 20.9201 8.23C21.7601 7.63 22.4801 6.87 23.0601 6Z" fill="#222437" fill-opacity="0.7"/>
</g>
</svg>
